# xmcd
#
# Track frame offsets:
#	150
#	18041
#	32002
#	48778
#	65486
#	89855
#	104922
#	125777
#	144924
#	164851
#	195728
#	217896
#	241770
#
# Disc length: 3527 seconds
#
# Revision: 0
# Processed by: cddbd v1.5.1PL0 Copyright (c) Steve Scherf et al.
# Submitted via: dBpowerAMP V4.0
#
DISCID=bc0dc50d
DTITLE=Mason Ruffner - Live
DYEAR=2005
DGENRE=Blues
TTITLE0=Bourbon St. Bang
TTITLE1=Kepp on holdi' on
TTITLE2=Baby, I don't care no more
TTITLE3=Ain't nothin' but trouble
TTITLE4=Gamblin' feever
TTITLE5=Red hot lover
TTITLE6=Runnin'
TTITLE7=Dancin' on top of the world
TTITLE8=Serenata
TTITLE9=Loaded down
TTITLE10=Love don't love nobody
TTITLE11=Gypsy Blood
TTITLE12=Courage
EXTD=
EXTT0=
EXTT1=
EXTT2=
EXTT3=
EXTT4=
EXTT5=
EXTT6=
EXTT7=
EXTT8=
EXTT9=
EXTT10=
EXTT11=
EXTT12=
PLAYORDER=
